<svg width="48" height="64" viewBox="0 0 48 64" fill="none" xmlns="http://www.w3.org/2000/svg">
  <defs>
    <linearGradient id="facetedGrad" x1="0%" y1="0%" x2="100%" y2="100%">
      <stop offset="0%" style="stop-color:#D69C7A;stop-opacity:0.9" />
      <stop offset="50%" style="stop-color:#D4AF37;stop-opacity:1" />
      <stop offset="100%" style="stop-color:#D69C7A;stop-opacity:0.9" />
    </linearGradient>
    <radialGradient id="glowHalo" cx="50%" cy="50%">
      <stop offset="60%" style="stop-color:rgba(214, 156, 122, 0);stop-opacity:0" />
      <stop offset="100%" style="stop-color:rgba(214, 156, 122, 0.3);stop-opacity:1" />
    </radialGradient>
  </defs>

  <!-- Glow halo -->
  <ellipse cx="24" cy="28" rx="20" ry="24" fill="url(#glowHalo)"/>

  <!-- Bulb base (screw threads) -->
  <rect x="19" y="48" width="10" height="3" fill="#D4AF37" opacity="0.8"/>
  <rect x="19" y="52" width="10" height="3" fill="#D4AF37" opacity="0.7"/>
  <rect x="19" y="56" width="10" height="3" fill="#D4AF37" opacity="0.6"/>

  <!-- Faceted bulb body - geometric segments -->
  <path d="M 24 10 L 30 18 L 30 38 L 24 46 L 18 38 L 18 18 Z" fill="url(#facetedGrad)"/>

  <!-- Facet lines to show cuts -->
  <path d="M 24 10 L 24 46" stroke="#D4AF37" stroke-width="0.5" opacity="0.4"/>
  <path d="M 18 18 L 30 18" stroke="#D4AF37" stroke-width="0.5" opacity="0.4"/>
  <path d="M 18 28 L 30 28" stroke="#D4AF37" stroke-width="0.5" opacity="0.4"/>
  <path d="M 18 38 L 30 38" stroke="#D4AF37" stroke-width="0.5" opacity="0.4"/>
  <path d="M 18 18 L 24 10" stroke="#D4AF37" stroke-width="0.5" opacity="0.3"/>
  <path d="M 30 18 L 24 10" stroke="#D4AF37" stroke-width="0.5" opacity="0.3"/>
  <path d="M 18 38 L 24 46" stroke="#D4AF37" stroke-width="0.5" opacity="0.3"/>
  <path d="M 30 38 L 24 46" stroke="#D4AF37" stroke-width="0.5" opacity="0.3"/>

  <!-- Highlight sparkle -->
  <path d="M 20 16 L 21 18 L 19 18 Z" fill="#FFE4B5" opacity="0.9"/>
</svg>