<svg width="64" height="64" viewBox="0 0 64 64" fill="none" xmlns="http://www.w3.org/2000/svg">
  <defs>
    <linearGradient id="roseGoldGrad6" x1="0%" y1="0%" x2="100%" y2="100%">
      <stop offset="0%" style="stop-color:#D69C7A;stop-opacity:1" />
      <stop offset="100%" style="stop-color:#D4AF37;stop-opacity:1" />
    </linearGradient>
    <filter id="bevel6">
      <feGaussianBlur in="SourceAlpha" stdDeviation="1" result="blur"/>
      <feSpecularLighting in="blur" surfaceScale="2" specularConstant="0.8" specularExponent="10" lighting-color="#FFE4B5" result="spec">
        <fePointLight x="-50" y="-50" z="100"/>
      </feSpecularLighting>
      <feComposite in="spec" in2="SourceAlpha" operator="in" result="specOut"/>
      <feComposite in="SourceGraphic" in2="specOut" operator="arithmetic" k1="0" k2="1" k3="1" k4="0"/>
    </filter>
  </defs>

  <!-- Building base -->
  <rect x="14" y="24" width="36" height="34" fill="url(#roseGoldGrad6)" filter="url(#bevel6)" rx="2"/>

  <!-- Windows (grid) -->
  <rect x="18" y="28" width="6" height="6" rx="1" fill="#D4AF37" opacity="0.4"/>
  <rect x="29" y="28" width="6" height="6" rx="1" fill="#D4AF37" opacity="0.5"/>
  <rect x="40" y="28" width="6" height="6" rx="1" fill="#D4AF37" opacity="0.4"/>

  <rect x="18" y="38" width="6" height="6" rx="1" fill="#D4AF37" opacity="0.5"/>
  <rect x="29" y="38" width="6" height="6" rx="1" fill="#D4AF37" opacity="0.4"/>
  <rect x="40" y="38" width="6" height="6" rx="1" fill="#D4AF37" opacity="0.5"/>

  <rect x="18" y="48" width="6" height="6" rx="1" fill="#D4AF37" opacity="0.4"/>
  <rect x="29" y="48" width="6" height="6" rx="1" fill="#D4AF37" opacity="0.5"/>
  <rect x="40" y="48" width="6" height="6" rx="1" fill="#D4AF37" opacity="0.4"/>

  <!-- Light string accent across building -->
  <path d="M 14 20 Q 20 18 26 20 Q 32 22 38 20 Q 44 18 50 20"
        stroke="#D4AF37" stroke-width="1.5" fill="none" opacity="0.8"/>

  <!-- Light bulbs on string -->
  <ellipse cx="18" cy="20" rx="2" ry="3" fill="#D4AF37" opacity="0.9"/>
  <ellipse cx="26" cy="20" rx="2" ry="3" fill="#D4AF37" opacity="0.9"/>
  <ellipse cx="38" cy="20" rx="2" ry="3" fill="#D4AF37" opacity="0.9"/>
  <ellipse cx="46" cy="20" rx="2" ry="3" fill="#D4AF37" opacity="0.9"/>

  <!-- Door -->
  <rect x="27" y="50" width="10" height="8" rx="1" fill="#D4AF37" opacity="0.3"/>
</svg>