<svg width="64" height="64" viewBox="0 0 64 64" fill="none" xmlns="http://www.w3.org/2000/svg">
  <defs>
    <linearGradient id="roseGoldGrad2" x1="0%" y1="0%" x2="100%" y2="100%">
      <stop offset="0%" style="stop-color:#D69C7A;stop-opacity:1" />
      <stop offset="100%" style="stop-color:#D4AF37;stop-opacity:1" />
    </linearGradient>
    <filter id="bevel2">
      <feGaussianBlur in="SourceAlpha" stdDeviation="1" result="blur"/>
      <feSpecularLighting in="blur" surfaceScale="2" specularConstant="0.8" specularExponent="10" lighting-color="#FFE4B5" result="spec">
        <fePointLight x="-50" y="-50" z="100"/>
      </feSpecularLighting>
      <feComposite in="spec" in2="SourceAlpha" operator="in" result="specOut"/>
      <feComposite in="SourceGraphic" in2="specOut" operator="arithmetic" k1="0" k2="1" k3="1" k4="0"/>
    </filter>
  </defs>

  <!-- Shield body -->
  <path d="M 32 8 L 48 14 L 48 32 C 48 44 40 54 32 58 C 24 54 16 44 16 32 L 16 14 Z"
        fill="url(#roseGoldGrad2)" filter="url(#bevel2)"/>

  <!-- Center highlight -->
  <path d="M 32 12 L 44 16 L 44 32 C 44 42 38 50 32 54 C 26 50 20 42 20 32 L 20 16 Z"
        fill="none" stroke="#D4AF37" stroke-width="0.8" opacity="0.4"/>

  <!-- Check mark -->
  <path d="M 24 32 L 29 38 L 40 24"
        stroke="#D4AF37" stroke-width="3" stroke-linecap="round" stroke-linejoin="round" fill="none"/>

  <!-- Clip accent at top -->
  <ellipse cx="32" cy="10" rx="3" ry="2" fill="#D4AF37" opacity="0.8"/>
  <rect x="30" y="6" width="4" height="4" rx="1" fill="#D4AF37" opacity="0.7"/>
</svg>