<svg width="64" height="64" viewBox="0 0 64 64" fill="none" xmlns="http://www.w3.org/2000/svg">
  <defs>
    <linearGradient id="roseGoldGrad5" x1="0%" y1="0%" x2="100%" y2="100%">
      <stop offset="0%" style="stop-color:#D69C7A;stop-opacity:1" />
      <stop offset="100%" style="stop-color:#D4AF37;stop-opacity:1" />
    </linearGradient>
    <filter id="bevel5">
      <feGaussianBlur in="SourceAlpha" stdDeviation="1" result="blur"/>
      <feSpecularLighting in="blur" surfaceScale="2" specularConstant="0.8" specularExponent="10" lighting-color="#FFE4B5" result="spec">
        <fePointLight x="-50" y="-50" z="100"/>
      </feSpecularLighting>
      <feComposite in="spec" in2="SourceAlpha" operator="in" result="specOut"/>
      <feComposite in="SourceGraphic" in2="specOut" operator="arithmetic" k1="0" k2="1" k3="1" k4="0"/>
    </filter>
  </defs>

  <!-- Badge outer circle -->
  <circle cx="32" cy="32" r="24" fill="url(#roseGoldGrad5)" filter="url(#bevel5)"/>

  <!-- Badge inner ring -->
  <circle cx="32" cy="32" r="18" fill="none" stroke="#D4AF37" stroke-width="2" opacity="0.6"/>

  <!-- Ribbon tails at bottom -->
  <path d="M 24 48 L 22 58 L 26 54 L 24 48" fill="url(#roseGoldGrad5)" filter="url(#bevel5)"/>
  <path d="M 40 48 L 42 58 L 38 54 L 40 48" fill="url(#roseGoldGrad5)" filter="url(#bevel5)"/>

  <!-- Check mark in center -->
  <path d="M 24 32 L 29 38 L 40 24"
        stroke="#D4AF37" stroke-width="3.5" stroke-linecap="round" stroke-linejoin="round" fill="none"/>

  <!-- Star points around badge -->
  <path d="M 32 8 L 33 12 L 31 12 Z" fill="#D4AF37" opacity="0.8"/>
  <path d="M 56 32 L 52 33 L 52 31 Z" fill="#D4AF37" opacity="0.8"/>
  <path d="M 32 56 L 31 52 L 33 52 Z" fill="#D4AF37" opacity="0.8"/>
  <path d="M 8 32 L 12 31 L 12 33 Z" fill="#D4AF37" opacity="0.8"/>
</svg>